<svg xmlns="http://www.w3.org/2000/svg" version="1.1" xmlns:xlink="http://www.w3.org/1999/xlink" xmlns:svgjs="http://svgjs.dev/svgjs" width="1440" height="560" preserveAspectRatio="none" viewBox="0 0 1440 560"><g mask="url(&quot;#SvgjsMask2952&quot;)" fill="none"><rect width="1440" height="560" x="0" y="0" fill="url(&quot;#SvgjsLinearGradient2953&quot;)"></rect><path d="M1440 0L1349.88 0L1440 175.4z" fill="rgba(255, 255, 255, .1)"></path><path d="M1349.88 0L1440 175.4L1440 296.06L889.0200000000001 0z" fill="rgba(255, 255, 255, .075)"></path><path d="M889.02 0L1440 296.06L1440 330.29L874.79 0z" fill="rgba(255, 255, 255, .05)"></path><path d="M874.79 0L1440 330.29L1440 409.48L539.39 0z" fill="rgba(255, 255, 255, .025)"></path><path d="M0 560L581.31 560L0 362z" fill="rgba(0, 0, 0, .1)"></path><path d="M0 362L581.31 560L770.28 560L0 224.98z" fill="rgba(0, 0, 0, .075)"></path><path d="M0 224.98000000000002L770.28 560L1066.13 560L0 136.98000000000002z" fill="rgba(0, 0, 0, .05)"></path><path d="M0 136.98000000000002L1066.13 560L1187.6000000000001 560L0 48.880000000000024z" fill="rgba(0, 0, 0, .025)"></path></g><defs><mask id="SvgjsMask2952"><rect width="1440" height="560" fill="#ffffff"></rect></mask><linearGradient x1="15.28%" y1="-39.29%" x2="84.72%" y2="139.29%" gradientUnits="userSpaceOnUse" id="SvgjsLinearGradient2953"><stop stop-color="rgba(194, 224, 255, 1)" offset="0"></stop><stop stop-color="rgba(142, 191, 255, 1)" offset="0.65"></stop></linearGradient></defs></svg>